<svg width="11" height="8" viewBox="0 0 11 8" fill="none" xmlns="http://www.w3.org/2000/svg">
<path d="M10.3143 0.936325L9.46685 0.058217C9.43314 0.0194056 9.38017 0 9.33202 0C9.27905 0 9.2309 0.0194056 9.19719 0.058217L3.32255 6.02062L1.18456 3.86659C1.14604 3.82777 1.09788 3.80837 1.04973 3.80837C1.00158 3.80837 0.953426 3.82777 0.914903 3.86659L0.0577834 4.73014C-0.0192611 4.80776 -0.0192611 4.92905 0.0577834 5.00667L2.75434 7.72347C2.92769 7.89812 3.13956 8 3.31773 8C3.57294 8 3.79444 7.81079 3.8763 7.73317H3.88112L10.3192 1.21286C10.3866 1.13038 10.3866 1.0091 10.3143 0.936325Z" fill="#D90A2C"/>
</svg>
